<?xml version="1.0" encoding="utf-8"?>
<!-- Generator: Adobe Illustrator 16.0.3, SVG Export Plug-In . SVG Version: 6.00 Build 0)  -->
<!DOCTYPE svg PUBLIC "-//W3C//DTD SVG 1.1//EN" "http://www.w3.org/Graphics/SVG/1.1/DTD/svg11.dtd">
<svg version="1.1" id="Layer_1" xmlns="http://www.w3.org/2000/svg" xmlns:xlink="http://www.w3.org/1999/xlink" x="0px" y="0px"
	 width="100px" height="100px" viewBox="0 0 100 100" enable-background="new 0 0 100 100" xml:space="preserve">
<g>
	<g>
		<path fill="#79AD36" d="M30.27,23.359c-4.35,0-7.923,3.573-7.923,7.923s3.573,8,7.923,8s8.078-3.651,8.078-8
			C38.271,26.932,34.62,23.359,30.27,23.359z"/>
		<path fill="#79AD36" d="M71.673,1.998H1.996v69.905c0,15.146,11.107,26.099,26.332,26.099h69.677V28.097
			C98.005,13.261,86.664,1.998,71.673,1.998z M86.897,69.884L51.634,42.545c-1.088-0.777-2.411-1.165-3.887-1.165
			c-3.729,0-6.758,3.029-6.758,6.758c0,1.554,0.544,2.951,1.398,4.114l29.908,34.721H28.328c-11.263,0-15.225-8.079-15.225-14.992
			V13.105h58.57c10.486,0,15.225,7.768,15.225,14.992V69.884z"/>
	</g>
</g>
</svg>
